<?xml version="1.0" encoding="UTF-8"?>
<svg xmlns="http://www.w3.org/2000/svg" width="25" height="24" viewBox="0 0 25 24" fill="none">
  <path d="M19.9515 4.50656C24.0523 8.52065 24.0523 15.0346 19.9515 19.0492C15.8561 23.0574 9.22136 23.0574 5.12584 19.049C4.34376 18.2829 3.69888 17.4147 3.20462 16.4715L3.2332 17.6783C3.23913 17.9347 3.05104 18.1504 2.80311 18.185L2.74489 18.1897C2.48854 18.1957 2.2728 18.0076 2.23818 17.7596L2.23347 17.7014L2.16663 14.8102L5.07946 14.8139C5.3556 14.8142 5.57918 15.0384 5.57883 15.3145C5.57851 15.5709 5.38523 15.782 5.13652 15.8106L5.07821 15.8139L3.99163 15.812L4.06666 15.9618C4.51545 16.8301 5.10572 17.6295 5.82547 18.3345C9.53211 21.9623 15.5454 21.9623 19.252 18.3346C22.9522 14.7122 22.9522 8.8431 19.252 5.22119C15.5453 1.59294 9.53213 1.59294 5.82543 5.22125C4.70218 6.32036 3.89604 7.6506 3.44978 9.10641C3.36885 9.37043 3.08921 9.51885 2.8252 9.43792C2.56118 9.35699 2.41276 9.07735 2.49369 8.81334C2.98873 7.19839 3.88283 5.723 5.12598 4.50656C9.22134 0.497812 15.8561 0.497812 19.9515 4.50656Z" fill="black"></path>
</svg>
