<?xml version="1.0" encoding="UTF-8"?>
<svg xmlns="http://www.w3.org/2000/svg" width="24" height="24" viewBox="0 0 24 24" fill="none">
  <path d="M1.50022 4.19397L18.4523 4.20147C18.7087 4.20158 18.9199 4.39458 18.9488 4.64318L18.9521 4.70147L18.952 9.12197L20.2361 9.12434C21.2323 9.12601 22.0923 9.82315 22.3454 10.806L22.3702 10.9123L23.2052 14.9338C23.4584 16.149 22.7187 17.3543 21.5374 17.6236C21.4213 17.6498 21.3036 17.6661 21.1851 17.6727L21.0662 17.676L21.0371 17.6758C20.9532 19.0765 19.8329 20.1938 18.4528 20.1938C17.1623 20.1938 16.099 19.2173 15.8975 17.9455L8.49972 17.9415L8.50028 16.9415L15.9199 16.9451C16.1343 15.8999 16.9347 15.076 17.9523 14.8696L17.952 5.20106L2 5.19356V16.6856L3.42854 16.6867C3.76205 15.606 4.73709 14.8195 5.89532 14.8195C7.33088 14.8195 8.48503 16.0277 8.48503 17.5069C8.48503 18.9857 7.3308 20.1938 5.89532 20.1938C4.5185 20.1938 3.40041 19.0824 3.31132 17.6868L1.49981 17.6859C1.24346 17.6858 1.03223 17.4928 1.00336 17.2442L1 17.1859V4.69397C1 4.43747 1.19314 4.2261 1.44189 4.19731L1.50022 4.19397ZM5.89532 15.8195C5.02253 15.8195 4.3056 16.57 4.3056 17.5069C4.3056 18.4434 5.02258 19.1938 5.89532 19.1938C6.76805 19.1938 7.48503 18.4434 7.48503 17.5069C7.48503 16.57 6.7681 15.8195 5.89532 15.8195ZM18.4528 15.8195C17.58 15.8195 16.8631 16.57 16.8631 17.5069C16.8631 18.4434 17.5801 19.1938 18.4528 19.1938C19.3252 19.1938 20.0421 18.4433 20.0421 17.5069C20.0421 16.5701 19.3252 15.8195 18.4528 15.8195ZM18.952 10.122L18.9523 14.8694C19.881 15.0574 20.629 15.76 20.9158 16.6758L21.0666 16.676C21.1512 16.676 21.2349 16.6667 21.3163 16.6483C21.9305 16.5083 22.3366 15.8811 22.2408 15.2201L22.2262 15.1374L21.3911 11.1161C21.2758 10.563 20.8332 10.1666 20.3166 10.1275L20.2345 10.1243L18.952 10.122Z" fill="black"></path>
</svg>
